<svg xmlns="http://www.w3.org/2000/svg" viewBox="-180 1728 24 23.995"><defs><style>.a{fill:#fff;}</style></defs><path class="a" d="M35.593,18.872a.723.723,0,0,0-1.048,0L32.82,20.6,27.127,14.9l1.723-1.723A.741.741,0,1,0,27.8,12.131l-2.248,2.248a.723.723,0,0,0,0,1.048l.15.15C23.531,17,18.812,17.75,17.015,17.9a.72.72,0,0,0-.675.525L11.845,34.906a.679.679,0,0,0,.225.75.834.834,0,0,0,.75.225L29.3,31.387a.72.72,0,0,0,.525-.675c.15-1.8.9-6.518,2.323-8.689l.15.15a.723.723,0,0,0,1.048,0L35.6,19.925a.732.732,0,0,0,0-1.052ZM28.4,30.035l-13.259,3.6,4.87-4.87a2.46,2.46,0,0,0,1.273.3,2.6,2.6,0,0,0,1.873-.75,2.6,2.6,0,1,0-3.671-3.671,2.625,2.625,0,0,0-.45,3.071l-4.944,4.87,3.6-13.26c1.723-.225,6.667-.9,9.064-2.7l4.27,4.27c-1.722,2.473-2.4,7.417-2.622,9.14Zm-8.016-2.7a1.086,1.086,0,0,1,0-1.573,1.281,1.281,0,0,1,1.647,0,1.086,1.086,0,0,1,0,1.573A1.347,1.347,0,0,1,20.385,27.338Z" transform="translate(-191.817 1716.094)"/></svg>