<svg xmlns="http://www.w3.org/2000/svg" viewBox="-180 1694 24 24.343"><defs><style>.a{fill:#fff;fill-rule:evenodd;}</style></defs><path class="a" d="M34.2,16.057h1.371c2.743,0,3.429.686,3.429,3.429V34.914c0,2.743-.686,3.429-3.429,3.429H18.429c-2.743,0-3.429-.686-3.429-3.429V19.486c0-2.743.686-3.429,3.429-3.429H19.8v1.371a2.057,2.057,0,1,0,4.114,0V16.057h6.171v1.371a2.057,2.057,0,1,0,4.114,0Zm-16.114,4.8c-1.029,0-1.371.343-1.371,1.371V35.257c0,1.029.343,1.371,1.371,1.371H35.914c1.029,0,1.371-.343,1.371-1.371V22.229c0-1.029-.343-1.371-1.371-1.371Zm1.714,2.4h1.371c1.029,0,1.371.343,1.371,1.371V26c0,1.029-.343,1.371-1.371,1.371H19.8c-1.029,0-1.371-.343-1.371-1.371V24.629C18.429,23.6,18.771,23.257,19.8,23.257Zm6.514,0h1.371c1.029,0,1.371.343,1.371,1.371V26c0,1.029-.343,1.371-1.371,1.371H26.314c-1.029,0-1.371-.343-1.371-1.371V24.629C24.943,23.6,25.286,23.257,26.314,23.257Zm6.514,0H34.2c1.029,0,1.371.343,1.371,1.371V26c0,1.029-.343,1.371-1.371,1.371H32.829c-1.029,0-1.371-.343-1.371-1.371V24.629C31.457,23.6,31.8,23.257,32.829,23.257ZM19.8,29.771h1.371c1.029,0,1.371.343,1.371,1.371v1.371c0,1.029-.343,1.371-1.371,1.371H19.8c-1.029,0-1.371-.343-1.371-1.371V31.143C18.429,30.114,18.771,29.771,19.8,29.771Zm6.514,0h1.371c1.029,0,1.371.343,1.371,1.371v1.371c0,1.029-.343,1.371-1.371,1.371H26.314c-1.029,0-1.371-.343-1.371-1.371V31.143C24.943,30.114,25.286,29.771,26.314,29.771Zm6.514,0H34.2c1.029,0,1.371.343,1.371,1.371v1.371c0,1.029-.343,1.371-1.371,1.371H32.829c-1.029,0-1.371-.343-1.371-1.371V31.143C31.457,30.114,31.8,29.771,32.829,29.771ZM21.857,14a1.328,1.328,0,0,1,1.371,1.28V17.52a1.375,1.375,0,0,1-2.743,0V15.28A1.328,1.328,0,0,1,21.857,14Zm10.286,0a1.328,1.328,0,0,1,1.371,1.28V17.52a1.375,1.375,0,0,1-2.743,0V15.28A1.328,1.328,0,0,1,32.143,14Z" transform="translate(-195 1680)"/></svg>