<svg xmlns="http://www.w3.org/2000/svg" viewBox="-180 2104.967 32 32.045"><defs><style>.a{fill:#fff;}</style></defs><g transform="translate(-196.2 2088.783)"><path class="a" d="M55.055,29.719a4.189,4.189,0,0,0,2.934,7.146,4.308,4.308,0,0,0,2.982-1.231,4.229,4.229,0,0,0,0-5.915A4.142,4.142,0,0,0,55.055,29.719Zm4.259,4.211a1.843,1.843,0,0,1-2.555,0,1.806,1.806,0,1,1,2.555,0Z" transform="translate(-19.833 -6.476)"/><path class="a" d="M46.44,16.855l-12.4-.662a1.076,1.076,0,0,0-.9.331L16.815,32.849a2,2,0,0,0-.616,1.514,2.276,2.276,0,0,0,.616,1.514L28.552,47.613a2.169,2.169,0,0,0,3.028,0L47.86,31.24a1.076,1.076,0,0,0,.331-.9l-.662-12.4a1.135,1.135,0,0,0-1.089-1.089ZM30.018,45.722,18.66,34.364,34.419,18.605l10.79.567.568,10.79Z" transform="translate(0)"/></g></svg>