<svg xmlns="http://www.w3.org/2000/svg" viewBox="35 2105 32 27.146"><defs><style>.a{fill:#fff;}</style></defs><g transform="translate(16.294 2081.445)"><path class="a" d="M54.284,23.966a1.537,1.537,0,0,0-2.172,2.172L63.078,37.092,52.112,48.041a1.536,1.536,0,1,0,2.172,2.17l12.04-12.034a1.535,1.535,0,0,0,0-2.172Z" transform="translate(-16.068)"/><path class="a" d="M21.364,23.966a1.536,1.536,0,0,0-2.17,2.172l10.95,10.954-10.95,10.95a1.538,1.538,0,0,0-.04,2.21,1.534,1.534,0,0,0,2.21-.04L33.405,38.177a1.539,1.539,0,0,0,0-2.172Z" transform="translate(0)"/></g></svg>