<svg xmlns="http://www.w3.org/2000/svg" viewBox="1278 2334 88 64"><defs><style>.a{fill:#fff;}</style></defs><path class="a" d="M15,18a9.048,9.048,0,0,0-9,9V73a9.048,9.048,0,0,0,9,9H85a9.048,9.048,0,0,0,9-9V27a9.048,9.048,0,0,0-9-9Zm0,6H85a2.929,2.929,0,0,1,3,3V73a2.929,2.929,0,0,1-3,3H15a2.929,2.929,0,0,1-3-3V27A2.929,2.929,0,0,1,15,24Zm65.438,5.906a2.974,2.974,0,0,0-1.969.875L52.094,55.125a2.994,2.994,0,0,1-4.25,0L21.532,30.781a3.007,3.007,0,1,0-4.094,4.406L32.907,49.468,17.376,64.843A3.005,3.005,0,0,0,21.6,69.125L37.314,53.563l6.469,5.969a9.165,9.165,0,0,0,12.375.031l6.531-6.031L78.408,69.126a3.005,3.005,0,1,0,4.219-4.281L67.1,49.469,82.534,35.188a3,3,0,0,0-2.094-5.281Z" transform="translate(1272 2316)"/></svg>