<?xml version="1.0" encoding="utf-8"?>
<!-- Generator: Adobe Illustrator 21.0.2, SVG Export Plug-In . SVG Version: 6.00 Build 0)  -->
<svg version="1.1" id="Laag_1" xmlns="http://www.w3.org/2000/svg" xmlns:xlink="http://www.w3.org/1999/xlink" x="0px" y="0px"
	 viewBox="0 0 21.4 21.4" style="enable-background:new 0 0 21.4 21.4;" xml:space="preserve">
<style type="text/css">
	.st0{fill:#FFFFFF;}
</style>
<title>confetti_3d</title>
<path class="st0" d="M0.1,7.2L0,20.9c0,0.1,0,0.1,0,0.2c0.1,0.1,0.1,0.2,0.2,0.2c0.1,0.1,0.1,0,0.1,0l13.7,0.1c0.1,0,0.1,0,0.2,0
	c0.1,0,0.1-0.1,0.1-0.1l6.8-6.8c0,0,0.1-0.1,0.1-0.1c0-0.1,0-0.1,0-0.2l0,0l0.1-13.7l0,0c0-0.1,0-0.1,0-0.2c0-0.1-0.1-0.2-0.2-0.2
	c0-0.1-0.1-0.1-0.2,0L7.3,0C7.3,0,7.2,0,7.2,0.1C7.1,0.1,7.1,0.1,7,0.2L0.2,7C0.1,7,0.1,7,0.1,7.1C0.1,7.1,0.1,7.2,0.1,7.2z
	 M6.9,6.8l-5.4,0l5.3-5.3L6.9,6.8z M7.5,14.6l6.2,0l0,6L1.5,20.5L7.5,14.6z M14.6,14.6l5.3,0.1l-5.3,5.3L14.6,14.6z M20.5,13.8
	l-5.9,0l0-6.2l5.9-5.9L20.5,13.8z M13.7,7.8l0,6l-5.9,0l0-5.9L13.7,7.8L13.7,7.8z M6.8,14l-5.9,5.9l0-12.2l5.9,0L6.8,14z M19.9,1
	L14,6.9l-6.2,0l0-5.9L19.9,1z"/>
</svg>
