<svg xmlns="http://www.w3.org/2000/svg" viewBox="0 0 180 213.6"><defs><style>.a{fill:none;}.b{fill:#fff;}</style></defs><title>4d-icon</title><rect class="a" x="-14.87" y="-1.4" width="218.2" height="218.2"/><polygon class="b" points="76.55 0.9 98.44 2.4 37.14 104.96 87.84 109.91 90.58 82.82 107.87 61.71 101 127.53 4.23 118.54 76.55 0.9"/><polygon class="b" points="98.44 2.4 107.08 17.66 54.32 106.64 37.14 104.96 98.44 2.4"/><polygon class="b" points="77.67 211 94.63 198.96 99.32 143.55 84.17 142.09 77.67 211"/><path class="b" d="M107.87,61.71,101,127.53l-96.77-9L15.1,135.42l84.22,8.13L94.63,199s83.18,18.91,89.28-61.34S107.87,61.71,107.87,61.71Zm53.64,73.2c-5.88,51.52-46.7,47.84-46.7,47.84l9.52-100.26S167.39,83.4,161.51,134.91Z"/><path class="b" d="M181.33,153.87C166,235.69,77.67,211,77.67,211l17-12s70.36,16.56,86.7-45.09"/><path class="b" d="M161.82,131.71s6.41-46.2-37.49-49.22l-1.4,15.16S161.87,99.74,161.82,131.71Z"/></svg>