<svg xmlns="http://www.w3.org/2000/svg" viewBox="910 405 77.78 77.78"><defs><style>.a{fill:#fff;}</style></defs><path class="a" d="M86.109,41.668H58.332V13.891a2.781,2.781,0,0,0-2.777-2.781H44.446a2.779,2.779,0,0,0-2.777,2.781V41.668H13.891a2.779,2.779,0,0,0-2.781,2.777V55.554a2.781,2.781,0,0,0,2.781,2.777H41.668V86.109a2.781,2.781,0,0,0,2.777,2.781H55.555a2.781,2.781,0,0,0,2.777-2.781V58.332H86.109a2.781,2.781,0,0,0,2.781-2.777V44.445a2.781,2.781,0,0,0-2.781-2.777Z" transform="translate(898.89 393.89)"/></svg>