<svg xmlns="http://www.w3.org/2000/svg" viewBox="-858.731 586.269 40 40"><defs><style>.a{fill:#fff;}</style></defs><g transform="translate(-1497.731 191.269)"><path class="a" d="M1699.731-152.269h-40v-40h40Zm-31.466-25.748c.41,0,1.342.469,1.934,2.243.366,1.1,1.471,5.086,2.278,8,.469,1.692.839,3.027.894,3.18.07.2.143.41.219.636.642,1.893,1.612,4.755,4.035,5.2a3.71,3.71,0,0,0,.675.06c2.436,0,5.4-2.229,7.37-4.315.093-.1,9.321-9.954,9.669-15.742.292-4.863-1.353-5.91-1.973-6.3a5.738,5.738,0,0,0-3.042-.785,7.239,7.239,0,0,0-2.373.4,9.527,9.527,0,0,0-5.879,7.039,8.253,8.253,0,0,1,2.375-.459,1.938,1.938,0,0,1,1.376.42c1.026.987.706,3.148-.116,4.68-.835,1.555-3.249,5.26-4.139,5.376a.658.658,0,0,1-.085.006c-.891,0-1.535-1.769-1.617-2.094-.119-.477-1.582-6.82-2.127-10.559a5.262,5.262,0,0,0-1.794-3.558,3.714,3.714,0,0,0-2.229-.774c-1.105,0-3.037.834-9.631,6.885l1.547,1.973C1665.715-176.571,1667.589-178.017,1668.265-178.017Z" transform="translate(-1020.731 587.269)"/></g></svg>