<svg xmlns="http://www.w3.org/2000/svg" viewBox="-859.034 529.966 40 40"><defs><style>.a{fill:#fff;}</style></defs><g transform="translate(-859.034 529.966)"><path class="a" d="M28.084,0H11.916A11.93,11.93,0,0,0,0,11.916V28.084A11.93,11.93,0,0,0,11.916,40H28.084A11.93,11.93,0,0,0,40,28.084V11.916A11.93,11.93,0,0,0,28.084,0Zm7.892,28.084a7.892,7.892,0,0,1-7.892,7.892H11.916a7.892,7.892,0,0,1-7.892-7.892V11.916a7.892,7.892,0,0,1,7.892-7.892H28.084a7.892,7.892,0,0,1,7.892,7.892V28.084Z"/><path class="a" d="M143.345,133a10.345,10.345,0,1,0,10.345,10.345A10.357,10.357,0,0,0,143.345,133Zm0,16.667a6.321,6.321,0,1,1,6.321-6.321A6.321,6.321,0,0,1,143.345,149.667Z" transform="translate(-123.345 -123.345)"/><circle class="a" cx="2.479" cy="2.479" r="2.479" transform="translate(27.886 7.253)"/></g></svg>