<svg xmlns="http://www.w3.org/2000/svg" viewBox="-196 2265 32 32.133"><defs><style>.a{fill:#fff;}</style></defs><g transform="translate(-201.301 2259.801)"><path class="a" d="M14.5,80.7H13.243a.643.643,0,0,0-.646.646V82.6a.643.643,0,0,0,.646.646H14.5a.643.643,0,0,0,.646-.646V81.345A.645.645,0,0,0,14.5,80.7Z" transform="translate(-4.68 -48.424)"/><path class="a" d="M50.1,80.7H48.845a.643.643,0,0,0-.646.646V82.6a.643.643,0,0,0,.646.646H50.1a.643.643,0,0,0,.646-.646V81.345A.643.643,0,0,0,50.1,80.7Z" transform="translate(-27.514 -48.424)"/><path class="a" d="M14.5,68.7H13.243a.643.643,0,0,0-.646.646V70.6a.643.643,0,0,0,.646.646H14.5a.643.643,0,0,0,.646-.646V69.345A.668.668,0,0,0,14.5,68.7Z" transform="translate(-4.68 -40.727)"/><path class="a" d="M50.1,68.7H48.845a.643.643,0,0,0-.646.646V70.6a.643.643,0,0,0,.646.646H50.1a.643.643,0,0,0,.646-.646V69.345A.668.668,0,0,0,50.1,68.7Z" transform="translate(-27.514 -40.727)"/><path class="a" d="M14.5,56.8H13.243a.643.643,0,0,0-.646.646V58.7a.643.643,0,0,0,.646.646H14.5a.643.643,0,0,0,.646-.646V57.447A.643.643,0,0,0,14.5,56.8Z" transform="translate(-4.68 -33.096)"/><path class="a" d="M50.1,56.8H48.845a.643.643,0,0,0-.646.646V58.7a.643.643,0,0,0,.646.646H50.1a.643.643,0,0,0,.646-.646V57.447A.643.643,0,0,0,50.1,56.8Z" transform="translate(-27.514 -33.096)"/><path class="a" d="M14.5,44.8H13.243a.643.643,0,0,0-.646.646V46.7a.643.643,0,0,0,.646.646H14.5a.643.643,0,0,0,.646-.646V45.447A.667.667,0,0,0,14.5,44.8Z" transform="translate(-4.68 -25.4)"/><path class="a" d="M50.1,44.8H48.845a.643.643,0,0,0-.646.646V46.7a.643.643,0,0,0,.646.646H50.1a.643.643,0,0,0,.646-.646V45.447A.667.667,0,0,0,50.1,44.8Z" transform="translate(-27.514 -25.4)"/><path class="a" d="M36.715,5.2H17.529a.643.643,0,0,0-.646.646v5.271H11.756a.643.643,0,0,0-.646.646v5.129H5.946a.643.643,0,0,0-.646.646v19.15a.643.643,0,0,0,.646.646H25.1a.643.643,0,0,0,.646-.646V31.558h5.129a.643.643,0,0,0,.646-.646V25.641h5.129a.643.643,0,0,0,.646-.646V5.845a.55.55,0,0,0-.574-.646ZM24.451,36.041H6.627V18.181h17.86v17.86Zm5.809-5.773H25.777V17.537a.643.643,0,0,0-.646-.646H12.4V12.408H30.225v17.86Zm5.775-5.917H31.552V11.762a.643.643,0,0,0-.646-.646H18.211V6.491H36.035Z" transform="translate(0 0)"/><path class="a" d="M81.146,50.644H82.4A.643.643,0,0,0,83.047,50V48.743A.643.643,0,0,0,82.4,48.1H81.146a.643.643,0,0,0-.646.646V50A.643.643,0,0,0,81.146,50.644Z" transform="translate(-48.231 -27.514)"/><path class="a" d="M81.146,38.644H82.4A.643.643,0,0,0,83.047,38V36.743A.643.643,0,0,0,82.4,36.1H81.146a.643.643,0,0,0-.646.646V38A.643.643,0,0,0,81.146,38.644Z" transform="translate(-48.231 -19.817)"/><path class="a" d="M81.146,26.746H82.4a.643.643,0,0,0,.646-.646V24.845A.643.643,0,0,0,82.4,24.2H81.146a.643.643,0,0,0-.646.646V26.1A.643.643,0,0,0,81.146,26.746Z" transform="translate(-48.231 -12.186)"/><path class="a" d="M45.544,14.746H46.8a.643.643,0,0,0,.646-.646V12.845A.643.643,0,0,0,46.8,12.2H45.544a.643.643,0,0,0-.646.646V14.1A.643.643,0,0,0,45.544,14.746Z" transform="translate(-25.397 -4.49)"/><path class="a" d="M81.146,14.746H82.4a.643.643,0,0,0,.646-.646V12.845A.643.643,0,0,0,82.4,12.2H81.146a.643.643,0,0,0-.646.646V14.1A.643.643,0,0,0,81.146,14.746Z" transform="translate(-48.231 -4.49)"/><path class="a" d="M66.3,64.6H65.044a.643.643,0,0,0-.646.646V66.5a.643.643,0,0,0,.646.646H66.3a.643.643,0,0,0,.646-.646V65.248A.642.642,0,0,0,66.3,64.6Z" transform="translate(-37.904 -38.1)"/><path class="a" d="M66.3,52.6H65.044a.643.643,0,0,0-.646.646V54.5a.643.643,0,0,0,.646.646H66.3a.643.643,0,0,0,.646-.646V53.248A.642.642,0,0,0,66.3,52.6Z" transform="translate(-37.904 -30.403)"/><path class="a" d="M66.3,40.7H65.044a.643.643,0,0,0-.646.646V42.6a.643.643,0,0,0,.646.646H66.3a.643.643,0,0,0,.646-.646V41.345A.643.643,0,0,0,66.3,40.7Z" transform="translate(-37.904 -22.769)"/><path class="a" d="M30.7,28.7H29.447a.643.643,0,0,0-.646.646V30.6a.643.643,0,0,0,.646.646H30.7a.643.643,0,0,0,.646-.646V29.345A.644.644,0,0,0,30.7,28.7Z" transform="translate(-15.073 -15.072)"/><path class="a" d="M66.3,28.7H65.044a.643.643,0,0,0-.646.646V30.6a.643.643,0,0,0,.646.646H66.3a.643.643,0,0,0,.646-.646V29.345A.643.643,0,0,0,66.3,28.7Z" transform="translate(-37.904 -15.072)"/></g></svg>