<svg xmlns="http://www.w3.org/2000/svg" viewBox="-196 1606 32 29.808"><defs><style>.a{fill:#fff;}</style></defs><g transform="translate(-209.5 1589.5)"><path class="a" d="M42.5,34.5H53.021v2.63H42.5Z" transform="translate(-16.288 -10.11)"/><path class="a" d="M42.5,48.5H56.089v2.63H42.5Z" transform="translate(-16.288 -17.973)"/><path class="a" d="M45.5,16.5H20.514V29.651H18.322A4.807,4.807,0,0,0,13.5,34.473v7.014a4.807,4.807,0,0,0,4.822,4.822H39.8a5.688,5.688,0,0,0,5.7-5.7ZM20.514,41.486a2.192,2.192,0,0,1-4.384,0V34.473a2.17,2.17,0,0,1,2.192-2.192h2.192ZM42.87,40.61A3.05,3.05,0,0,1,39.8,43.678H22.618a4.62,4.62,0,0,0,.526-2.192V19.13H42.87Z"/><path class="a" d="M42.5,61.5H53.021v2.63H42.5Z" transform="translate(-16.288 -25.274)"/></g></svg>