<svg xmlns="http://www.w3.org/2000/svg" viewBox="-300 896 144.366 250"><defs><style>.a{fill:#1e9bd7;opacity:0.647;}</style></defs><path class="a" d="M144.366,194.9v.992c-.3-.05-.6.05-.942-.149-2.033-1.289-4.116-2.38-6.15-3.67-2.48-1.537-5.158-2.728-7.637-4.265-1.835-1.141-3.868-1.934-5.5-3.273l-19.639,11.307c2.926,2.281,6.2,3.62,9.076,5.6,3.62-1.984,7.092-3.918,10.514-6.05,1.091.992,2.579,1.389,3.769,2.182,2.331,1.537,4.86,2.728,7.141,4.265,2.132,1.389,4.463,2.43,6.6,3.868a4.346,4.346,0,0,0,2.728,1.091v.992c-.248,0-.546.1-.744,0-1.885-1.041-3.769-2.083-5.6-3.174-4.364-2.678-8.877-5.158-13.39-7.737V207.8l10.415,5.852v23.9c2.678,1.488,5.406,2.926,8.034,4.463.446.248.744.546,1.289.5v.992c-.3-.05-.6.05-.942-.149-1.289-.793-2.728-1.488-3.967-2.331-1.587-1.141-3.521-1.637-4.959-2.976l-19.441,11.258V250h-1.984v-.843c2.628-.793,4.86-2.48,7.29-3.819,2.976-1.637,5.852-3.422,8.778-5.158,1.587-.942,3.224-1.785,4.711-2.579V214.789L124.479,220v11.853c-6.943,4.265-14.084,7.985-20.78,12.15v5.951h-.5V243.7a15.55,15.55,0,0,1-2.876-1.389,39.859,39.859,0,0,0-5.406-3.224c-2.579-1.389-5.009-3.025-7.588-4.364a43,43,0,0,1-3.918-2.133v10.861c3.472,1.984,6.794,4.067,10.315,5.753v.744H91.748v-.744L82.771,244l-8.877,5.207v.744h-2.48a3.631,3.631,0,0,0-1.686-1.537c-2.579-1.339-5.009-2.926-7.389-4.315-3.323,1.389-6.05,3.67-9.274,5.108v.744H51.577v-24.1a15.549,15.549,0,0,1-2.876-1.389,39.856,39.856,0,0,0-5.406-3.224c-2.579-1.389-5.009-3.025-7.588-4.364a42.99,42.99,0,0,1-3.918-2.132v11.01c3.62,1.488,6.646,4.166,10.315,5.554V249.95h-.992v-8.629c0-2.876.05-5.852-.05-8.927L31.69,237.8v12.15H30.2c0-.5-.4-.694-.694-.942a24.463,24.463,0,0,0-3.967-2.331,37.006,37.006,0,0,0-4.959-2.728,5.261,5.261,0,0,1-.744.744c-1.289.793-2.628,1.537-3.967,2.281a45.948,45.948,0,0,0-5.009,2.976H9.869a.908.908,0,0,0-.694-.893C5.951,247.719,3.273,245.338,0,244v-.992l10.365,5.8V237.949C6.993,236.015,3.521,233.981,0,232.1V207.3a1.662,1.662,0,0,0,.5,0,51.347,51.347,0,0,1,7.241-3.967c1.041-1.339,2.777-1.637,4.116-2.579,2.529-1.736,5.306-3.075,8.183-4.761l-9.373-5.5c-1.24.744-2.529,1.537-3.769,2.281a47.6,47.6,0,0,0-6.15,3.62c-.149.1-.5,0-.744,0V183.5c.3-.05.6.05.942-.149a60.16,60.16,0,0,1,6.943-4.017c.248-.793,1.587-.446,1.537-1.537a9.913,9.913,0,0,0-1.041-.5L.05,172.585V159.691c.248,0,.546.1.744,0,2.38-1.587,4.86-2.976,7.34-4.364,1.736-.992,3.472-2.033,5.207-3.025,2.331-1.339,4.662-2.678,6.943-3.967V125.422c-3.124,2.083-6.546,3.472-9.324,5.7v11.6c-1.389.843-2.728,1.785-4.166,2.579a36.543,36.543,0,0,0-6,3.521c-.149.1-.5,0-.744,0v-.992c.3-.05.6.05.942-.149a26.122,26.122,0,0,1,2.926-1.835,26.012,26.012,0,0,0,4.513-2.728c.347-.3,1.339,0,1.041-.992a6.173,6.173,0,0,1-.992-.5L.05,136.927v-24.8c1.339.1,2.083-.992,3.075-1.537,2.579-1.389,5.059-2.926,7.489-4.315l20.581,11.8c1.587-.645,2.777-1.686,4.166-2.281s2.48-1.537,3.819-2.232,2.728-1.488,4.067-2.232a22.269,22.269,0,0,0,3.72-2.331c1.19-.992,3.075-.843,3.868-2.579-3.372-1.438-6.1-3.819-9.324-5.108l-10.167,5.9L10.663,95.269C7.737,97,4.711,98.889,1.637,100.625c-.446.248-.893.793-1.488.546v-.992c.248,0,.546.1.744,0C2.628,99.137,4.265,98,6.05,97.054c1.488-.794,2.777-1.934,4.414-2.48V71.662c-3.372,2.133-6.844,3.72-9.819,5.9,0,2.083-.05,4.067,0,6.05.05,1.885-.248,3.769.2,5.654H.05V76.374c.3-.05.6.05.942-.149,1.389-.843,2.827-1.537,4.116-2.43,1.389-.942,3.124-1.389,4.513-2.728-3.174-1.984-6.3-3.868-9.572-5.6V52.569c3.025,1.835,6.1,3.62,9.175,5.356,3.273,1.835,6.447,3.868,9.819,5.6a5.9,5.9,0,0,0,2.133.992l19.49-11.258c-.645-.893-1.835-1.041-2.728-1.637-1.785-1.19-3.72-2.133-5.6-3.224a1.991,1.991,0,0,0-2.033-.05,8.342,8.342,0,0,0-1.637.793c-2.48,1.736-5.158,3.025-7.786,4.513-2.331-1.19-4.414-2.728-6.646-3.868-1.686-.893-3.372-1.835-5.009-2.777-3.075-1.785-6.1-3.67-9.175-5.356v-24.8c.5,0,.6.5.843.645C.248,18.994.6,20.532.546,22.069s0,3.124,0,4.711V40.667C2.133,42.2,3.967,42.7,5.5,43.791s3.472,1.736,4.959,2.876a46.938,46.938,0,0,0,4.811,2.827c1.587.942,3.075,2.182,5.059,2.628V41.46L10.018,35.41c.546-1.488.744-13.886.347-23.557L.05,5.951V4.959l10.464,6a1.981,1.981,0,0,0,.893-.2,42.407,42.407,0,0,1,4.513-2.777c3.075-1.537,5.951-3.472,9.026-5.059C26.433,2.133,28.169,1.438,29.31.05h1.984a24.863,24.863,0,0,1-4.662,2.827c-1.686.893-3.124,2.232-5.059,2.678-2.728,2.182-5.951,3.571-8.927,5.356-.645.4-1.091.942-1.587,1.24V34.715c3.075-2.033,6.447-3.472,9.423-5.6V17.358l20.73-12V0H42.2V5.406l6.5,3.769c2.133,1.24,4.215,2.579,6.4,3.67s4.017,2.728,6.447,3.571V5.654c-2.579-1.339-4.959-3.025-7.637-4.265A3.135,3.135,0,0,1,52.172,0H53.66c.843,1.141,2.331,1.339,3.472,2.083A23.275,23.275,0,0,0,62.14,4.959a3.5,3.5,0,0,0,.744,0A79.328,79.328,0,0,1,70.026.744.759.759,0,0,0,70.571,0h3.967c2.579,2.083,5.554,3.372,8.381,5.009l1.041-.546A64.283,64.283,0,0,0,91.3,0h2.48V23.259c3.224,1.984,6.348,3.819,9.522,5.554s6.348,3.719,9.72,5.7V23.507L103.2,17.8V0h.5V17.011c3.174-2.232,6.6-3.571,9.423-5.7V0h2.48c3.224,2.331,7.092,4.463,8.927,4.959a53.9,53.9,0,0,1,5.158-3.025A8.258,8.258,0,0,0,132.464,0h3.967c.2.6.645.744,1.141,1.041,2.331,1.24,4.513,2.579,6.794,3.918v.992l-9.373-5.5V11.307c.645.446,1.19.843,1.785,1.19s1.24.6,1.835.893c1.984,1.041,3.819,2.281,5.7,3.422V18.3c-3.273,1.537-6.249,3.571-9.423,5.257V35.41c-2.281,1.389-4.513,2.728-6.844,3.967-1.141.6-2.331,1.19-3.422,1.885-2.876,1.835-5.852,3.472-8.778,5.158a8.123,8.123,0,0,0-1.785,1.438V69.976a.258.258,0,0,0,.1.2l.05.05c3.075-1.934,6.348-3.372,9.274-5.5v-12c3.868-1.637,7.241-3.918,10.811-5.9,3.372-1.885,6.6-3.918,10.018-5.7V42.1c-.248,0-.6-.1-.744,0-2.38,1.984-5.306,3.174-7.885,4.86-2.43,1.587-5.158,2.678-7.588,4.315-1.041.694-2.331.942-3.075,2.033,3.224,1.587,6.15,3.769,9.423,5.158l9.919-5.455v.992c-.3.05-.6-.1-.942.149-2.628,2.033-5.7,3.323-8.48,5.108,0,1.736-.05,3.571,0,5.356a28.47,28.47,0,0,0,.2,5.406c3.224-1.785,6.1-3.67,9.224-5.158v.992c-.248,0-.6-.1-.744,0a30.522,30.522,0,0,1-5.307,3.273,23.515,23.515,0,0,0-2.976,1.934,19.285,19.285,0,0,1,3.819,2.232c1.736.992,3.472,1.984,5.158,2.976v.992l-9.324-5.554V82.623c1.438.893,2.777,1.785,4.166,2.579,1.736.992,3.422,1.984,5.158,2.976v1.488a1.653,1.653,0,0,0-.5,0c-3.224,1.984-6.5,3.819-9.77,5.654-1.19.694-2.48,1.24-3.62,2.033a42.976,42.976,0,0,1-5.852,3.422v22.813c3.372-1.587,6.3-3.521,9.373-5.207v-12l10.365-5.7v.992c-.248,0-.645-.1-.744,0-.694.942-1.835,1.141-2.728,1.736-1.835,1.19-3.769,2.083-5.554,3.472a19.284,19.284,0,0,1,3.819,2.232c1.736.992,3.472,1.984,5.158,2.976v.5c-.3-.05-.6.05-.942-.149-2.728-1.637-5.554-3.174-8.431-4.811v10.811c1.438.893,2.777,1.785,4.166,2.579,1.736.992,3.472,1.984,5.158,2.976v1.488a1.652,1.652,0,0,0-.5,0c-1.339,1.24-3.075,1.736-4.563,2.678-1.389.893-2.728,2.033-4.364,2.43,0,1.885-.05,3.719,0,5.5a28.325,28.325,0,0,0,.2,5.406c1.984-1.19,3.769-2.281,5.554-3.224,1.24-.645,2.232-1.686,3.62-1.934v.992c-.248,0-.6-.1-.744,0-2.876,2.083-6.1,3.571-9.076,5.5-3.273-1.587-6.2-3.571-9.324-5.158a32.266,32.266,0,0,1-3.62-2.033c-2.48-1.785-5.306-3.025-7.786-4.711-6.6,3.868-13.241,7.439-19.788,11.506l9.373,5.356,10.315-5.9,20.631,11.9c2.281-1.389,4.513-2.628,6.7-3.918.992-.6,1.934-1.637,3.273-1.637v.992a1.653,1.653,0,0,0-.5,0c-1.339,1.24-3.075,1.736-4.612,2.678a18.055,18.055,0,0,1-4.364,2.48V176.7c0,.05.1.149.149.2a1.05,1.05,0,0,0,.347.149c2.628-1.587,5.307-3.224,7.985-4.86.347-.2.645-.1.942-.149v.992c-.248,0-.6-.1-.744,0a42.53,42.53,0,0,1-6.15,3.62,6.517,6.517,0,0,0-1.984,1.488l8.927,5.306v.5c-.3-.05-.6.05-.942-.149q-4.761-2.827-9.522-5.5v-23.9c-.3-.1-.6-.2-.843-.3-3.472-2.033-6.943-3.967-10.365-6-1.587-.942-3.224-1.785-4.811-2.777-1.141-.694-2.331-1.389-3.67-2.182v10.861c3.472,2.133,6.794,4.166,10.415,5.951v24.053a25.187,25.187,0,0,1,3.273,1.637c2.281,1.587,4.811,2.728,7.141,4.265,2.132,1.389,4.463,2.43,6.6,3.868C142.382,194.307,143.275,195,144.366,194.9ZM.6,208.242v22.763l9.819-5.654c0-1.934.05-3.918,0-5.9-.05-1.885.3-3.819-.3-5.8l20.581-11.9V178.982l-9.423,5.306v12C14.233,200.258,7.34,204.325.6,208.242Zm31.244-30.3v23.9L51.527,213.2V202.44c-3.174-2.331-6.943-4.017-10.415-6.2v-24c-1.587-.347-2.678-1.389-3.967-2.083a79.818,79.818,0,0,0-8.084-4.463c-1.19-1.438-3.323-1.488-4.463-2.976-1.24-.05-1.885-1.289-3.124-1.587v10.911Zm82.226-47.758c2.38,1.24,4.513,2.628,6.745,3.868s4.215,2.529,6.4,3.719,4.116,2.876,6.7,3.62V130.678l-10.365-5.951v-23.9c-2.48-.992-4.414-2.678-6.7-3.769-2.232-1.041-4.166-2.728-6.4-3.769s-4.166-2.827-6.7-3.67v10.811l10.315,5.9ZM62.587,88.623v23.8c3.323,1.885,6.447,3.819,9.72,5.6s6.4,3.918,9.968,5.654V112.825l-10.415-5.951V82.92a4.131,4.131,0,0,1-.744-.2c-3.422-2.083-6.893-4.017-10.365-6.05-1.537-.893-3.124-1.736-4.612-2.678-1.141-.744-2.281-1.885-3.918-2.133V82.672ZM103.1,53.858l-9.373,5.406v12.15c-.645-.248-.893.248-1.339.5-3.323,1.785-6.4,4.017-9.869,5.5-.992,1.24-2.579,1.438-3.769,2.281A38.1,38.1,0,0,1,72.9,83.069v22.317c0,.05.1.149.149.2.1.05.248.149.347.2l8.976-5.158V88.475a9.016,9.016,0,0,0,.942-.4c2.976-1.438,5.6-3.521,8.679-4.711.992-1.19,2.529-1.537,3.769-2.281l7.34-4.414ZM92.789,190.042a16.512,16.512,0,0,1-4.067-2.083,79.823,79.823,0,0,0-8.084-4.463c-1.19-1.438-3.323-1.488-4.463-2.976-1.24-.05-1.885-1.289-3.124-1.587v10.911L83.466,195.7v23.9l19.689,11.357V220.244c-3.124-2.331-6.943-4.017-10.315-6.15ZM20.383,65.116a12.68,12.68,0,0,1-1.19-.546c-3.372-1.835-6.5-4.116-10.067-5.654-1.19-1.438-3.075-1.835-4.563-2.827A11.147,11.147,0,0,0,.645,53.908V64.769l10.315,5.9v23.8l19.689,11.357V94.872l-10.266-5.9V65.116Zm31.244-6.447V36.451c0-.05-.1-.149-.149-.2-.1-.05-.149-.05-.248-.1L42.1,41.51V53.462c-.843.05-1.091.793-1.637,1.041-3.075,1.289-5.7,3.273-8.679,4.761a31.944,31.944,0,0,0-3.571,2.083c-2.232,1.389-4.513,2.678-6.745,3.819V87.929c3.372-1.637,6.3-3.521,9.423-5.257V70.522a4.132,4.132,0,0,0,.744-.2c3.075-1.438,5.8-3.472,8.828-5.009a32.269,32.269,0,0,0,3.62-2.033c2.331-1.637,5.009-2.728,7.538-4.612ZM41.113,148.582l-10.365-6v-23.9a7.629,7.629,0,0,1-.942-.4c-1.885-1.041-3.769-2.083-5.6-3.224-2.976-1.785-6-3.472-8.976-5.306-1.24-.793-2.678-1.438-4.166-2.331V118.33l10.365,6v23.8a3.258,3.258,0,0,0,.843.6,33.408,33.408,0,0,1,5.852,3.174c3.472,2.182,7.141,4.017,10.613,6.2a4.563,4.563,0,0,0,2.38,1.041ZM83.366,17.7c-1.835,1.041-3.62,2.133-5.455,3.075-1.637.843-3.224,1.785-4.811,2.728-2.827,1.736-5.7,3.372-8.58,5.009a4.908,4.908,0,0,0-1.984,1.637V52.222a.258.258,0,0,0,.1.2c0,.05.05.05.1.1,2.976-2.033,6.3-3.372,9.224-5.554V35.211L92.789,23.16V.843a.258.258,0,0,0-.1-.2c-.05-.05-.1-.1-.149-.1L83.366,5.753Zm-1.091,142.68v-23.9a4.133,4.133,0,0,1-.744-.2c-3.422-2.083-6.993-3.918-10.365-6.05-1.488-.942-3.124-1.686-4.612-2.728a27.592,27.592,0,0,0-3.918-2.232v10.911l10.415,6.05v23.8a4.915,4.915,0,0,0,.843.546,37.03,37.03,0,0,1,5.852,3.174c3.62,2.232,7.34,4.215,11.01,6.4.546.347,1.041.942,1.934.793V166.286c-3.571-1.736-6.794-3.769-10.415-5.9Zm-61.4,58.867c3.62-1.835,6.943-3.967,10.365-5.951l20.68,11.952,19.738-11.406-9.472-5.5-10.167,5.9c-2.232-1.19-4.563-2.43-6.893-3.819-2.529-1.488-5.009-3.075-7.538-4.513-2.133-1.24-4.315-2.38-6.348-3.521L11.9,213.549c.1.248.1.5.149.546C14.977,215.83,17.9,217.516,20.879,219.252Zm61.4-22.416L72.9,202.142V214c-6.943,4.315-14.085,7.984-20.68,12.15v22.763c3.075-2.083,6.447-3.472,9.423-5.654V231.2c2.678-.843,4.86-2.48,7.191-3.769,2.976-1.637,5.852-3.422,8.778-5.158,1.587-.942,3.224-1.785,4.711-2.628V196.836ZM51.825,70.522l20.631,11.9c2.083-1.19,4.116-2.48,6.249-3.571,1.289-.645,2.579-1.339,3.819-2.083,3.124-2.033,6.447-3.769,9.819-5.753l-9.621-5.5C79.3,67.6,75.927,69.579,72.456,71.365a19.631,19.631,0,0,1-2.331-1.041c-3.372-2.48-7.191-4.215-10.762-6.4-2.529-1.488-5.059-2.976-7.538-4.414-3.273,1.885-6.546,3.769-9.77,5.753s-6.745,3.571-9.819,5.8l9.324,5.406ZM93.037,34.914c2.876,1.141,5.356,2.926,7.935,4.414,3.521,2.033,7.241,3.868,10.563,6.249a4.138,4.138,0,0,0,2.48,1.041l19.49-11.258-9.274-5.406c-3.571,1.686-6.794,3.967-10.415,5.852-1.686-.942-3.472-1.835-5.207-2.876-2.38-1.438-4.811-2.827-7.191-4.215-2.827-1.637-5.6-3.273-8.282-4.811L73.3,35.36c3.422,1.785,6.4,3.868,9.671,5.356ZM41.658,160.782c-3.472-1.984-6.844-4.067-10.216-5.951-3.422-1.885-6.943-3.918-10.315-5.951-2.232,1.24-4.563,2.281-6.7,3.67-3.967,2.579-8.183,4.662-12.15,7.141-.3.2-.793.05-.744.794l9.125,5.356,10.216-6,20.73,11.9,19.54-11.307c-2.926-2.281-6.3-3.72-9.324-5.654ZM82.87,125.074l-20.631-11.9c-1.537.843-3.075,1.686-4.612,2.579s-2.976,1.587-4.414,2.48c-2.777,1.785-5.7,3.422-8.58,5.009a6.468,6.468,0,0,0-1.934,1.537l9.224,5.306,10.266-5.951,20.68,11.9c2.48-1.438,4.662-2.876,6.993-4.067,3.967-2.033,7.538-4.761,11.654-6.546a1.077,1.077,0,0,0,.694-1.19c-3.174-1.438-6.1-3.472-9.125-5.059Zm20.581-36.7,20.532,11.853c2.083-1.091,3.967-2.083,5.852-3.174,2.331-1.389,4.612-2.728,6.993-4.067s4.612-2.777,7.191-4.067l-9.671-5.5-10.315,5.951a43.127,43.127,0,0,0-4.116-2.48c-2.678-1.24-5.108-2.876-7.637-4.315-2.976-1.686-6.1-3.224-8.828-5.158L83.714,88.822l9.373,5.455ZM93.186,189.546l19.689-11.357c-.4-.248-.694-.5-1.041-.694-2.777-1.637-5.6-3.224-8.381-4.86l-10.167,5.9a22.816,22.816,0,0,1-3.323-1.587c-2.331-1.537-4.711-2.976-7.141-4.265a88.923,88.923,0,0,0-9.026-5.009,4.978,4.978,0,0,1-1.091-.942c-1.934,1.091-3.868,2.232-5.8,3.273-1.389.744-2.876,1.488-4.215,2.331-2.827,1.885-5.9,3.372-8.778,5.158-.3.2-.843,0-.793.793,3.025,1.885,6.15,3.769,9.175,5.306l10.117-6Zm29.9,42.2c-2.926-2.182-6.3-3.521-9.175-5.5-3.769,1.835-7.141,4.067-10.514,5.9l-20.581-11.9L63.38,231.5c.942,1.835,3.323,1.537,4.315,3.075,1.835.4,3.124,1.934,4.811,2.529l10.266-5.9,20.631,11.9ZM41.559,17.011c6.893,3.918,13.837,8.084,20.73,11.853L81.928,17.506,72.6,12,62.339,17.854c-.6.2-1.19-.347-1.587-.645-3.372-2.331-7.092-4.116-10.563-6.249-2.876-1.736-5.8-3.422-8.629-4.91L21.771,17.457c3.273,1.785,6.3,3.769,9.671,5.356Zm52.172,173.13c.2,7.538-.2,15.027.248,22.515,0,.05.149.05.248.1l9.076-5.307V195.6l20.184-11.654V161.178l-9.423,5.356v11.952ZM31.839,118.726v22.813l9.373-5.356V124.231c6.844-4.067,13.737-7.687,20.234-11.754V89.714C58.322,91.8,55,93.186,52.222,95.17v11.307c0,.1.2.248.347.347-1.835.992-3.67,1.885-5.455,2.976-1.835,1.141-3.72,2.182-5.6,3.224-1.438.793-2.777,1.736-4.166,2.529-1.736,1.091-3.571,2.133-5.5,3.174Zm61,35.211V142.085l20.184-11.654V107.518c-3.075,2.182-6.5,3.521-9.373,5.654.2,3.819-.2,7.489.248,11.208,0,.1.2.248.3.347-1.19.694-2.43,1.339-3.62,2.033-4.414,2.678-8.976,5.059-13.44,7.637a41.271,41.271,0,0,1-3.62,2.182v22.863ZM51.627,177.792l20.234-11.7V143.325l-9.423,5.356v11.952L42.254,172.287V195.1l9.324-5.356V177.792ZM61.545,29.508,42.254,18.35V29.26l10.415,6.15c-.248.248-.446.347-.446.446V58.867c6.5,3.62,12.894,7.538,19.639,11.258V59.264l-10.315-6V29.508Zm51.478,41.559V47.312L93.831,36.2V47.114l10.415,6.15c-.2.2-.446.3-.446.446-.347,7.637-.05,15.324-.2,22.962,6.6,3.72,13.043,7.588,19.788,11.357V77.167ZM10.365,131.125A20.3,20.3,0,0,0,5.7,128.1c-1.587-.893-3.124-2.133-5.108-2.678v10.712l9.77,5.7ZM.6,124.033l9.869-5.753V108.014a.258.258,0,0,0-.1-.2,1.315,1.315,0,0,0-.3-.248L.6,113.073Zm0,71.315,9.819-5.753c0-1.736.05-3.571,0-5.356a28.47,28.47,0,0,0-.2-5.406L.6,184.438Zm0-34.071v10.563l9.77,5.7V166.683c-2.281-1.736-5.059-2.926-7.637-4.513a16.72,16.72,0,0,0-1.587-.942c-.1-.1-.3,0-.546.05Zm10.067-42.154L1.19,124.529c3.372,1.984,6.447,3.967,9.522,5.5l9.423-5.455ZM133.555,71.117l-9.423-5.554-9.621,5.5,9.522,5.406ZM112.974,213.8l-9.621-5.455c-2.926,1.934-6.3,3.323-9.175,5.6l9.175,5.356ZM40.468,231.5,31.293,226.2,21.97,231.6c3.124,2.232,6.3,3.719,9.175,5.5a27.223,27.223,0,0,0,4.761-2.579,15.553,15.553,0,0,0,4.563-3.025Zm21.821-94.525-9.522,5.356c3.273,2.083,6.447,3.918,9.522,5.554l9.324-5.5Zm-30-101.567,9.224,5.406c2.827-1.587,5.753-3.224,8.679-4.91a.767.767,0,0,0,.446-.843L41.559,29.9C38.385,31.889,35.112,33.327,32.285,35.41ZM51.974,190.587a17.589,17.589,0,0,0-4.811,2.678c-1.488,1.041-3.422,1.24-4.414,2.876l9.423,5.5c1.19-1.736,3.124-1.984,4.563-3.025,1.339-.992,3.025-1.587,4.463-2.728Zm82.275-71.514c-2.976,2.083-6.348,3.422-9.324,5.654,3.472,1.438,6.249,3.868,9.572,5.207a32.544,32.544,0,0,0,4.612-2.628c1.537-.843,3.224-1.438,4.364-2.976ZM20.78,183.545c3.323-1.537,6.3-3.571,9.621-5.356l-9.373-5.554-9.572,5.455c3.323,1.984,6.4,3.62,9.324,5.455ZM83.862,53.263l8.976,5.257a2.721,2.721,0,0,0,.645,0c2.777-1.488,5.356-3.323,8.183-4.711.347-.149.694-.5.546-.893l-9.175-5.207C90.111,49.742,86.739,51.081,83.862,53.263Zm-1.885-.05-9.423-5.5-9.522,5.5,9.472,5.406Zm.744,48.056c-3.174,1.934-6.348,3.571-9.423,5.654a26.736,26.736,0,0,1,4.86,2.678c1.537.942,3.075,1.686,4.662,2.579l9.472-5.406Zm31.194,53.511-9.373,5.356c3.372,2.48,8.133,5.158,9.621,5.5,2.827-1.934,5.852-3.422,8.877-5.257-2.777-2.331-6.3-3.472-9.125-5.6ZM104.444,17.655c1.885,1.041,3.472,1.885,4.959,2.728,1.289.744,2.529,1.488,3.769,2.281a1.116,1.116,0,0,0,1.339,0c2.678-1.934,5.753-3.174,8.53-5.108-2.926-2.133-6.3-3.521-9.274-5.554C110.742,13.886,107.469,15.324,104.444,17.655ZM42.551,88.97l9.373,5.406,9.324-5.455-9.423-5.554C48.949,85.4,45.527,86.739,42.551,88.97Zm41.311,71.414c3.124,1.785,6.2,3.719,9.423,5.257,1.637-.744,2.926-2.033,4.711-2.48,1.041-1.537,3.372-1.289,4.414-3.174-3.372-1.488-6.15-3.769-9.423-5.158-3.025,1.984-6.3,3.422-9.125,5.554ZM11.307,35.41c3.571,1.587,6.546,3.918,9.919,5.406,2.976-2.083,6.1-3.571,9.125-5.455L21.028,29.9ZM103.749,207.7a15.639,15.639,0,0,1,3.67,2.083c1.537.893,3.075,1.736,4.563,2.628.347.248.6.546,1.091.149V201.944l-9.324-5.306V207.7ZM63.38,195.745c.893,1.835,3.273,1.537,4.265,3.075,1.835.4,3.124,1.885,4.761,2.48,3.372-1.438,6.15-3.67,9.572-5.257l-9.423-5.554Zm-12.5-53.61a29.332,29.332,0,0,1-4.91-2.678c-1.488-.942-3.025-1.686-4.563-2.529a49.95,49.95,0,0,1-4.563,2.876,36.313,36.313,0,0,0-4.612,2.728l9.373,5.307a25.9,25.9,0,0,0,4.711-2.628c1.389-.992,3.372-1.24,4.563-3.075ZM10.712,226.2,1.141,231.65l9.671,5.554c3.025-2.083,6.1-3.571,9.224-5.5Zm122.744-12.349-9.423-5.554-9.423,5.554c3.273,1.984,6.4,3.521,9.324,5.455Zm.992-191.034,9.522-5.406c-3.62-1.488-6.546-3.918-9.77-5.356l-9.423,5.455c3.472,1.736,6.4,3.819,9.671,5.306ZM31.293,94.227l9.423-5.356c-3.273-1.885-6.447-3.868-9.671-5.406l-9.472,5.5c3.62,1.488,6.4,3.868,9.72,5.257Zm62.785,12.6,9.324,5.406,9.373-5.455L103.4,101.22c-2.976,2.083-6.3,3.422-9.324,5.6ZM41.113,88.177V77.068c-3.273-1.488-6.1-3.521-9.324-5.158V82.722ZM61.446,184.09l-9.274-5.257v10.861l9.274,5.356ZM62.587,195.3l9.324-5.455c-.05-3.62.05-7.191-.05-10.811l-9.324,5.306ZM133.852,70.224V59.115c-3.323-1.339-5.951-3.769-9.324-5.009V64.818ZM92.69,59.562c-2.827-2.133-6.1-3.571-9.274-5.554V64.918l9.274,5.455ZM73,36.2V47.262c1.736.4,2.976,1.736,4.612,2.43,1.587.645,2.827,1.984,4.662,2.48V41.311a21.089,21.089,0,0,1-4.612-2.579C76.175,37.79,74.638,37.1,73,36.2Zm-31.889,5.5c-2.777-2.083-6.05-3.571-9.274-5.554V47.064l9.274,5.406ZM21.424,41.46V52.47l9.324-5.455V36.6a.258.258,0,0,0-.1-.2l-.1-.1Zm92.74-6.745c3.075-2.033,6.447-3.472,9.274-5.5V18.3l-9.274,5.455Zm-82.325-.2,9.324-5.406V18.7a.258.258,0,0,0-.1-.2c-.05-.05-.1-.1-.149-.1l-9.026,5.158ZM21.424,29.21c3.075,1.686,5.951,3.62,9.274,5.158V23.458c-3.323-1.389-6-3.72-9.274-5.009Zm-1.141,201.6V220a32.946,32.946,0,0,0-4.662-2.777,20.693,20.693,0,0,0-4.612-2.529v10.762ZM30.8,214.64l-9.423,5.306v10.315a.258.258,0,0,0,.1.2,1.315,1.315,0,0,0,.3.248L30.8,225.5Zm73,5.5v10.911c3.075-2.083,6.447-3.472,9.274-5.5V214.739ZM133.852,11.357V.5l-9.224,5.257V16.862c2.976-2.182,6.249-3.571,9.224-5.5ZM11.01,248.859l9.224-5.406V232.593L11.01,237.85v11.01ZM21.424,243.3l9.224,5.406V237.75l-9.224-5.356V243.3Zm50.436,5.356V237.8l-9.224-5.406V243.4ZM61.446,125.422c-3.124,2.083-6.447,3.472-9.274,5.5v10.911l9.274-5.5Zm21.92-12.5v10.315c0,.05.1.149.149.2l.3.149,8.877-5.059v-11.01ZM51.478,141.837v-11.01L42.2,125.422v10.811C45.13,138.365,48.5,139.7,51.478,141.837Zm.645,12.15,9.324,5.406v-10.96c-1.587-.893-3.124-1.835-4.662-2.678s-2.827-1.984-4.612-2.529Zm41.708-10.712v10.96l9.274,5.356V148.73Zm-10.415-42.65,9.324,5.455V95.021l-9.324-5.257ZM11.01,177.495l9.274-5.455V161.129c-3.174,1.984-6.5,3.472-9.274,5.554ZM124.628,88.078l9.224-5.306V72.01c-3.323,1.339-6,3.72-9.224,5.009V88.078ZM103.2,171.841V161.426c0-.05-.1-.149-.149-.2l-.3-.149-8.877,5.207V177.2Zm-61-94.723c0,1.885-.05,3.67,0,5.455a26.176,26.176,0,0,0,.248,5.5c3.075-2.133,6.15-3.67,9.076-5.406V71.762Zm61.545,94.723,9.274,5.406v-10.96c-3.025-1.736-6-3.571-9.274-5.306ZM71.861,11.406V.446C68.786,2.579,65.364,3.967,62.587,6V16.763ZM82.275,5.7,73,.446V11.307c3.025,1.637,5.951,3.571,9.274,5.207ZM114.164.446V11.357c1.587.843,3.124,1.736,4.662,2.529s2.827,1.984,4.612,2.529V5.7ZM93.831,107.618v10.911l9.274,5.356V113.023Zm29.607,112.23-9.026-5.158c-.1.1-.248.149-.248.2v10.563l9.274,5.306Zm-71.91-76.721L42.2,148.532c0,1.835-.05,3.67,0,5.455a27.159,27.159,0,0,0,.2,5.307l9.224-5.257c-.05-3.571.1-7.141-.1-10.911ZM72.952,237.85v5.406a33.123,33.123,0,0,0,.149,5.406l9.125-5.207V232.543ZM11.01,189.744l9.224,5.306V184.14l-9.224-5.257v10.861Zm102.013-35.509v-10.96c-3.075,2.133-6.5,3.521-9.274,5.554v10.762ZM93.781,94.971c0,1.885-.05,3.67,0,5.5.05,1.736-.248,3.472.2,5.306l9.224-5.306V90.161c0-.1-.149-.248-.3-.446Zm30.8-76.622V29.111c4.067,2.728,7.885,4.761,9.324,4.959V23.606ZM123.438,207.8V196.886l-9.224,5.207V213ZM42.2,100.674l9.423,5.406V95.269c-2.926-1.984-6.2-3.521-9.423-5.554Zm20.383,96.062c-.2,3.769-.05,7.34-.1,10.861l9.373,5.356V202.043ZM52.172,202.39V213.2c3.075-2.083,6.447-3.472,9.274-5.5V196.836c-3.075,2.133-6.5,3.472-9.274,5.554ZM31.789,95.021c0,1.785-.05,3.62,0,5.406a27.812,27.812,0,0,0,.2,5.356l9.224-5.257c-.05-3.62.05-7.191-.05-10.861Zm60.9-58.867L83.366,41.46c.1,3.472-.1,7.042.1,10.861l9.224-5.257ZM82.325,54.007l-9.373,5.356v5.356a41.479,41.479,0,0,0,.149,5.5l9.224-5.306Z" transform="translate(-300 896)"/></svg>