<svg id="Laag_2" data-name="Laag 2" xmlns="http://www.w3.org/2000/svg" viewBox="0 0 597.11 597.11"><defs><style>.cls-1{fill:#fff;}.cls-2{fill:#e21578;stroke:#e21578;}.cls-2,.cls-3,.cls-4,.cls-5{stroke-miterlimit:10;stroke-width:8px;}.cls-3,.cls-6{fill:#00bcd4;}.cls-3{stroke:#00bcd4;}.cls-4{fill:#2b3081;stroke:#2b3081;}.cls-5{fill:#2db299;stroke:#2db299;}</style></defs><title>4d-sticker</title><circle class="cls-1" cx="298.55" cy="298.55" r="298.55"/><path class="cls-2" d="M313.83,498h0a214.16,214.16,0,0,1-24.16-4.93c-1.58-.38-3.13-.69-4.71-1.11l-28.52,19.37a227.93,227.93,0,0,0,32.2,6.71c52.28,7.1,139,1.55,173-101.35C440.21,459.22,393.79,508.68,313.83,498Z"/><polygon class="cls-3" points="295.88 376.13 270.87 372.78 253.19 505.68 281.32 486.58 295.88 376.13"/><polygon class="cls-2" points="206.5 289.52 321.37 111.72 308.91 85.65 177.72 285.61 206.5 289.52"/><path class="cls-4" d="M318.75,213.32l-30.28,36-7.24,53.59a3.27,3.27,0,0,1-3.67,2.81L171.74,291.35a3.23,3.23,0,0,1-2.3-5L303.76,81.63,265.2,76.94,109.55,311.34l192.09,25.71Z"/><path class="cls-5" d="M341.48,207.46c-6.79-.93-12.09-1.32-15.13-1.51l-18.7,135.23A3.24,3.24,0,0,1,304,344L110,318l16.56,29.29,141.47,18.64a2.42,2.42,0,0,1,.46,0L300,370.11h0a3.26,3.26,0,0,1,2.79,3.66L288,486a213.2,213.2,0,0,0,24.83,5C422.74,506,460.64,411.18,471,374.76c.45-1.59.87-3.13,1.22-4.48l.25-.94c6.66-42.88-.21-78.27-20.39-105.3C422,223.8,369.9,211.31,341.48,207.46ZM433.94,354l-.16,1.56c0,.32-.09.62-.14.95a.68.68,0,0,1,0,.12h0c-11.26,98.57-104.74,104-105.68,104.1a3.16,3.16,0,0,1-.61,0,3.22,3.22,0,0,1-2.77-3.67L347.76,288.2l4.67-37.66.21-1.73a0,0,0,0,1,0,0l0-.22a3.28,3.28,0,0,1,3.3-2.87,69.54,69.54,0,0,1,8.06.93c11.37,1.58,32.33,6.92,48.64,24.89a75.67,75.67,0,0,1,11.95,17.91c1.15,2.3,2.23,4.7,3.21,7.23l.06.15C433.52,311.35,436.28,330,433.94,354Z"/><path class="cls-6" d="M425.58,324.76c-15.39-35.25-56.55-43.43-68.8-45.1l-.19,0c-.36-.05-.69-.1-1-.12l-2.08-.16,3.5-28.92,1.93.17a84,84,0,0,1,11.12,1.8c16,4,44.42,16,55.55,51.93a107.86,107.86,0,0,1,3.8,19.42l1.33,12.81Z"/><path class="cls-6" d="M358.75,252.6a82.29,82.29,0,0,1,10.86,1.76c16.62,4.12,43.45,16.24,54.08,50.57a105.34,105.34,0,0,1,3.72,19c-15.64-35.84-56.4-44.38-70.36-46.28l-1.31-.16,2.9-24,.11-.92m-3.51-4.33-.46,3.85-.11.92-2.9,24-.51,4.16,4.17.31c.28,0,.58.07.89.11l.22,0a111.59,111.59,0,0,1,33.29,10c16.17,8,27.58,19.38,33.91,33.88L434,349.17l-2.65-25.62a110.42,110.42,0,0,0-3.86-19.76v-.05c-11.42-36.88-40.58-49.2-56.94-53.26h-.07a84.11,84.11,0,0,0-11.4-1.84l-3.86-.35Z"/></svg>